<?xml version="1.0" encoding="UTF-8"?> <svg xmlns="http://www.w3.org/2000/svg" width="16" height="16" viewBox="0 0 16 16" fill="none"><g clip-path="url(#clip0_23_1660)"><path d="M10.2503 2C10.2081 1.99988 10.1666 2.01055 10.1298 2.031L0.129762 7.531C0.116614 7.53938 0.104307 7.54901 0.0930117 7.55975C0.0849392 7.5655 0.0771782 7.57168 0.0697617 7.57825C0.0488381 7.59957 0.0319037 7.62446 0.0197617 7.65175C0.0185117 7.65475 0.0185117 7.65825 0.0172617 7.6615C0.00768422 7.68697 0.00228136 7.71381 0.00126172 7.741C0.00126172 7.74425 -0.000488281 7.74675 -0.000488281 7.75V13.75C-0.000488281 13.8163 0.0258509 13.8799 0.072735 13.9268C0.119619 13.9737 0.183208 14 0.249512 14H15.7503C15.8166 14 15.8802 13.9737 15.927 13.9268C15.9739 13.8799 16.0003 13.8163 16.0003 13.75V7.75C15.9985 6.22553 15.3922 4.764 14.3142 3.68604C13.2363 2.60808 11.7747 2.00172 10.2503 2ZM10.3138 2.5C11.6514 2.51781 12.9319 3.04489 13.8945 3.97387C14.857 4.90286 15.4292 6.16386 15.4945 7.5H14.9418C14.8367 7.1464 14.6623 6.81726 14.4288 6.53178C14.1952 6.2463 13.9071 6.0102 13.5813 5.83725C13.4422 5.20767 13.0918 4.64465 12.5884 4.24182C12.0849 3.83899 11.4588 3.62061 10.814 3.623C10.7345 3.623 10.653 3.627 10.568 3.63525L10.5653 3.62975C10.4254 3.27875 10.2043 2.96588 9.92026 2.71675L10.3138 2.5ZM13.0113 6.675L12.6448 6.5015L12.585 6.113C12.5146 5.69485 12.2978 5.31535 11.9734 5.04228C11.649 4.7692 11.2381 4.62033 10.814 4.62225C10.7233 4.62367 10.6329 4.63127 10.5433 4.645L9.97276 4.72875L9.72151 4.22875C9.51201 3.8452 9.17153 3.5498 8.76226 3.3965L9.49776 3.02875C9.80376 3.20925 9.93751 3.4825 10.116 3.84725L10.1993 4.01575C10.223 4.06302 10.2612 4.10153 10.3082 4.12574C10.3552 4.14995 10.4087 4.15862 10.461 4.1505C10.5777 4.13153 10.6958 4.12167 10.814 4.121C11.362 4.11721 11.8935 4.30801 12.314 4.65942C12.7345 5.01083 13.0167 5.50005 13.1103 6.04C13.1165 6.08039 13.1325 6.11865 13.1569 6.15143C13.1813 6.1842 13.2133 6.21049 13.2503 6.228C13.7911 6.48326 14.2107 6.93971 14.4198 7.5H13.8528C13.6754 7.13681 13.3782 6.84588 13.0113 6.67625V6.675ZM8.03726 3.7525C8.28646 3.75426 8.53107 3.81979 8.74777 3.94285C8.96448 4.0659 9.14607 4.24239 9.27526 4.4555L9.60726 5.116C9.63087 5.16295 9.66868 5.20126 9.71531 5.2255C9.76194 5.24973 9.81502 5.25865 9.86701 5.251L10.613 5.14125C10.6792 5.13099 10.746 5.12506 10.813 5.1235C11.1177 5.12091 11.4134 5.22673 11.6473 5.42205C11.8812 5.61737 12.038 5.88947 12.0898 6.18975L12.1698 6.71C12.176 6.75039 12.192 6.78865 12.2164 6.82143C12.2408 6.8542 12.2728 6.88049 12.3098 6.898L12.7965 7.12825C12.9779 7.21427 13.1365 7.34159 13.2598 7.5H1.22376L8.03726 3.7525ZM0.500262 11H14.5003V11.5H0.500262V11ZM14.5003 10.5H0.500262V9H14.5003V10.5ZM0.500262 13.5V12H14.5003V13.5H0.500262ZM15.5003 13.5H15.0003V8.75C15.0003 8.6837 14.9739 8.62011 14.927 8.57323C14.8802 8.52634 14.8166 8.5 14.7503 8.5H0.500262V8H15.5003V13.5Z" fill="black"></path></g><defs><clipPath id="clip0_23_1660"><rect width="16" height="16" fill="white"></rect></clipPath></defs></svg> 