<svg xmlns="http://www.w3.org/2000/svg" viewBox="0 0 7291.44 1974.72"><defs><style>.cls-1{fill:#fff;}.cls-1,.cls-2{fill-rule:evenodd;}.cls-2{fill:#ed1c24;}</style></defs><g id="Слой_2" data-name="Слой 2"><g id="cdr_layer2"><polygon class="cls-1" points="1204.72 213.45 732.41 213.45 732.41 1240.06 473.21 1240.06 473.21 213.45 0 213.45 0 0 1204.72 0 1204.72 213.45"/><path class="cls-1" d="M2746.07,619.63q0,266.13-179,443.28-179.41,177-443,177.15t-443-177.15q-179-177-179-443.28t179-442.75Q1860.45-.13,2124,0t443,176.88Q2746.06,353.51,2746.07,619.63Zm-245.09,0q0-185-103.89-297Q2293.6,210.71,2124,210.72T1851,322.6q-103.89,112.29-103.89,297,0,182.61,104.16,296.23T2124,1029.34q168.63,0,272.78-113.48T2501,619.63Z"/><path class="cls-1" d="M7291.44,619.63q0,266.13-179,443.28-179.41,177-443,177.15t-443-177.15q-179-177-179-443.28t179-442.75Q6405.82-.13,6669.41,0t443,176.88Q7291.45,353.51,7291.44,619.63Zm-245.08,0q0-185-103.9-297Q6839,210.71,6669.41,210.72T6396.36,322.6q-103.9,112.29-103.9,297,0,182.61,104.16,296.23t272.79,113.48q168.63,0,272.79-113.48T7046.36,619.63Z"/><polygon class="cls-1" points="4545.37 157.67 4703.04 0 5147.73 444.68 5592.42 0 5750.09 157.67 5259.22 648.54 5259.22 1240.06 5036.24 1240.06 5036.24 648.54 4545.37 157.67"/><polygon class="cls-1" points="3043.36 202.35 3534.22 202.35 3534.22 591.52 3043.36 1082.39 3201.03 1240.06 3645.72 795.37 4090.4 1240.06 4248.08 1082.39 3757.21 591.52 3757.21 202.35 4248.08 202.35 4248.08 0 3757.21 0 3757.21 0 3534.22 0 3534.22 0 3043.36 0 3043.36 202.35"/><path class="cls-2" d="M1933.93,1602.17c1.49,9,2.78,18.08,4.16,27.11v.07c1.68,12,3.35,23.92,4.94,35.89l.85,6.41h-23.76l-1.32-3.82a276.94,276.94,0,0,0-11.43-27.41,106.6,106.6,0,0,0-17.74-25.78c-7.9-8.46-17.68-14.59-28.29-19.09-13.82-5.76-29.81-7.52-44.66-7.61-14.82.09-30.76,2-44.32,8.33-10.48,5-19.51,12-25.61,21.94s-8.52,20.93-8.52,32.47c.11,10.53,2.13,21.08,7.41,30.29a76.54,76.54,0,0,0,20.42,22.73,179.08,179.08,0,0,0,30.3,17.94c12,5.53,24.11,10.62,36.37,15.43,8.87,3.35,17.79,6.58,26.69,9.86a367.11,367.11,0,0,1,34.43,15,192.14,192.14,0,0,1,34.5,22.14,109.78,109.78,0,0,1,27.08,31.44c7.57,13.15,10.76,27.76,11,42.85v.13a95.21,95.21,0,0,1-21,60.12c-15.08,18.86-35.51,31.81-57.78,40.64-27.53,10.86-57.82,14.92-87.26,15.47h-.33c-14.85-.57-29.75-1.68-44.5-3.61a287.63,287.63,0,0,1-35.33-6.34l-.07,0a222.73,222.73,0,0,1-22.49-6.89,108.78,108.78,0,0,1-12.18-5.17l-1.9-1-.77-2a142.59,142.59,0,0,1-5.15-17.3q-2.88-12-5-24.14c-1.75-9.29-3.45-18.59-4.83-28-1.54-9.46-2.85-19-4.05-28.47l-.8-6.37h22.85l1.36,3.71a225.37,225.37,0,0,0,10,22.73,165.81,165.81,0,0,0,16.56,26,137.81,137.81,0,0,0,24.67,24.43,121.49,121.49,0,0,0,34.35,18.07c14.79,5.1,30.61,7,46.2,7.13,16.65,0,34-2,49.53-8.25,12.58-5.07,23.08-12.81,30.62-24.14,8-12.23,10.75-26.92,10.75-41.35-.11-10.3-1.87-20.62-6.44-29.93a75.08,75.08,0,0,0-16.78-22.75,130.39,130.39,0,0,0-24.13-17.56l0,0a258.28,258.28,0,0,0-27.56-13.75l-.08,0c-8.84-3.89-17.69-7.78-26.59-11.54-1.12-.44-2.34-.8-3.48-1.18-2.52-.82-5-1.63-7.57-2.46-7.94-2.59-15.81-5.58-23.57-8.67l0,0h0a276.49,276.49,0,0,1-29.29-14.35,165.48,165.48,0,0,1-29.13-20.64,100.89,100.89,0,0,1-22.64-28,74.24,74.24,0,0,1-9.28-36.19v-.06a80.46,80.46,0,0,1,10.43-39.49c7.24-13.32,17.78-24.28,29.88-33.29,14-10.54,30.45-17.73,47.2-22.78,20.3-6.11,41.87-8.39,63-8.49,8.67,0,17.36.22,26,.94a281.74,281.74,0,0,1,29.09,3.73c12.58,2.19,25.1,5.15,37.45,8.35l3.62.93.56,3.7C1931.67,1587.52,1932.84,1594.84,1933.93,1602.17Zm555.76,85.4c-.22-10.09-.43-20.2-.9-30.28a193.09,193.09,0,0,0-1.88-20.67v-.14a85.46,85.46,0,0,0-3-14.6l-.05-.15,0-.15c-1.48-5.73-5.17-10-9.89-13.42-7.11-5.12-16.86-8.26-25.29-10.29-14.16-3.46-29.38-5.14-43.89-6.28l-5.23-.41v-19.46h203v19.43l-5.19.44c-15.8,1.34-34.34,4-48.89,10.61l-.06,0c-8.22,3.62-16.39,9.23-18.43,18.53v0c-1.15,5.07-2,10.26-2.78,15.39-1.07,7-1.77,14-2.42,21-.94,10-1.37,20.12-1.8,30.14-.47,14.25-.65,28.51-.65,42.76v29.32c.12,23-1.16,46.41-5.28,69-3.55,19.48-9.75,38.33-19.6,55.56-9.84,17.43-23.24,32.22-38.75,44.78l0,0,0,0a180.5,180.5,0,0,1-41.39,23.76,247.23,247.23,0,0,1-49.94,15,288.32,288.32,0,0,1-54.67,5.2,317.48,317.48,0,0,1-68.46-7,193.6,193.6,0,0,1-61.52-24.46,135.06,135.06,0,0,1-35.5-31.8c-10.22-13.28-17.1-28.61-21.49-44.73-5.47-19.58-7.21-40.6-7.21-60.87V1649.43c.1-9.79-.08-20.69-2-30.32l0-.07c-1-5.72-3.3-11.1-7.82-14.92-5.26-4.46-13.47-6.77-20.11-8-13.1-2.5-27-3.62-40.34-4.49l-5.3-.35v-19.53h199.06v19.82l-5.6.07c-12.26.15-25.92.76-37.93,3.43-6.45,1.42-14,4-18.73,8.73-4.34,4.46-6.56,10.2-7.52,16.26v.1c-1.68,9.48-2,19.69-1.86,29.3v135.69c.1,29.13,4.64,60.12,19.48,85.66,12.95,22.29,31.43,38.22,55,48.58,27.45,12.05,58.29,16,88,15.92,24.69-.09,50.82-3,73.81-12.51,18.71-7.71,35.06-18.91,47.85-34.68,12.9-16,21.54-34.53,26.85-54.32,6.2-23.13,8.52-47.37,8.63-71.25v-32.38C2489.82,1716,2489.85,1701.75,2489.69,1687.57Zm462.25-85.4c1.49,9,2.78,18.08,4.16,27.11v.07c1.68,12,3.36,23.92,4.94,35.89l.85,6.41h-23.76l-1.32-3.82a272.29,272.29,0,0,0-11.44-27.41,106.28,106.28,0,0,0-17.73-25.78c-7.9-8.46-17.68-14.59-28.29-19.09-13.82-5.76-29.81-7.52-44.66-7.61-14.82.09-30.76,2-44.33,8.33-10.47,5-19.5,12-25.6,21.94s-8.52,20.93-8.52,32.47c.11,10.53,2.13,21.08,7.41,30.29a76.54,76.54,0,0,0,20.42,22.73,179.08,179.08,0,0,0,30.3,17.94c11.95,5.53,24.11,10.62,36.37,15.43,8.87,3.35,17.79,6.58,26.69,9.86a367.11,367.11,0,0,1,34.43,15,192.14,192.14,0,0,1,34.5,22.14,109.78,109.78,0,0,1,27.08,31.44c7.57,13.15,10.76,27.76,11,42.85v.13a95.21,95.21,0,0,1-21,60.12c-15.08,18.86-35.51,31.81-57.78,40.64-27.53,10.86-57.82,14.92-87.26,15.47h-.33c-14.85-.57-29.75-1.68-44.5-3.61a287.63,287.63,0,0,1-35.33-6.34l-.07,0a222.73,222.73,0,0,1-22.49-6.89,108.78,108.78,0,0,1-12.18-5.17l-1.9-1-.77-2a142.59,142.59,0,0,1-5.15-17.3q-2.88-12-5-24.14c-1.75-9.29-3.45-18.59-4.83-28-1.54-9.46-2.85-19-4-28.47l-.8-6.37h22.85l1.36,3.71a225.37,225.37,0,0,0,10,22.73,165.81,165.81,0,0,0,16.56,26,137.81,137.81,0,0,0,24.67,24.43,121.49,121.49,0,0,0,34.35,18.07c14.79,5.1,30.61,7,46.2,7.13,16.65,0,34-2,49.53-8.25,12.58-5.07,23.08-12.81,30.62-24.14,8-12.23,10.74-26.92,10.75-41.35-.11-10.3-1.87-20.62-6.44-29.93a75.08,75.08,0,0,0-16.78-22.75,130.39,130.39,0,0,0-24.13-17.56l0,0a257.19,257.19,0,0,0-27.55-13.75l-.08,0c-8.84-3.89-17.69-7.78-26.59-11.54-1.12-.44-2.34-.8-3.48-1.18-2.52-.82-5-1.63-7.57-2.46-7.94-2.59-15.81-5.58-23.57-8.67l0,0h0a275.54,275.54,0,0,1-29.29-14.35,165.48,165.48,0,0,1-29.13-20.64,100.89,100.89,0,0,1-22.64-28,74.24,74.24,0,0,1-9.28-36.19v-.06a80.46,80.46,0,0,1,10.43-39.49c7.24-13.32,17.78-24.28,29.88-33.29,14-10.54,30.45-17.73,47.2-22.78,20.3-6.11,41.87-8.39,63-8.49,8.68,0,17.36.22,26,.94a281.58,281.58,0,0,1,29.1,3.73c12.58,2.19,25.09,5.15,37.45,8.35l3.62.93.56,3.7C2949.68,1587.52,2950.85,1594.84,2951.94,1602.17Zm189.53,316.39c1.69-9.09,1.94-19,1.84-28.27V1647c.1-9-.13-19-2-27.81v-.09c-1.06-5.6-3.39-10.81-7.75-14.6-5.19-4.5-13.3-7-19.9-8.4-12.92-2.6-26.63-3.77-39.78-4.48l-5.37-.29v-19.59h198.28v19.57l-5.35.31c-12.39.71-25.38,1.89-37.54,4.46-6.41,1.43-14.12,3.92-19.12,8.37-4.3,3.83-6.54,9.19-7.69,14.74-1.83,8.85-2.06,18.79-2,27.81v95.82h317.36V1647c.1-9.09-.15-18.91-1.84-27.86-1.15-5.53-3.4-10.87-7.69-14.69-5-4.48-13-7-19.47-8.36-12.6-2.6-26-3.76-38.86-4.47l-5.36-.29v-19.59h199.83v19.59l-5.36.29c-13.15.71-26.86,1.88-39.79,4.48-6.59,1.41-14.7,3.9-19.89,8.4-4.37,3.79-6.69,9-7.75,14.6v.09c-1.83,8.85-2.06,18.79-2,27.81v243.31c-.1,9.17.12,19.23,2,28.24l0,.07c1.05,5.54,3.26,10.84,7.54,14.65l.05,0c4.95,4.51,12.75,6.88,19.15,8.22,12.32,2.57,25.77,3.53,38.33,4.16l5.39.27v19.62H3433.06v-19.65l5.41-.24c14-.63,28.79-1.58,42.55-4.18,6.89-1.32,15.82-3.72,21.3-8.34l0,0c4.54-3.74,7-8.91,8.18-14.59,1.83-9,2.06-19.06,2-28.23V1773.08H3195.15v117.21c-.1,9.08.11,19.25,2.07,28.15l0,.07c1.16,5.63,3.52,10.88,8,14.64l.05,0c5.29,4.58,13.41,7,20.12,8.3,12.92,2.57,26.79,3.55,39.92,4.18l5.4.26v19.63h-199v-19.62l5.38-.27c12.42-.62,25.75-1.58,37.93-4.16,6.23-1.32,14.08-3.7,18.85-8.17l.05,0,0,0C3138.18,1929.45,3140.33,1924.05,3141.47,1918.56ZM3848.65,1619c-1.82,8.94-2.06,18.9-2,28v243.31c-.1,9.17.13,19.29,2,28.3,1.25,5.7,3.61,11.19,8,15.19,5.08,4.49,13.15,6.88,19.65,8.22,12.59,2.44,26.11,3.27,38.91,3.66l5.5.17v19.73H3720.86v-19.73l5.49-.17c12.82-.38,26.57-1.19,39.18-3.66,6.56-1.33,14.52-3.69,19.65-8.22,4.33-4,6.64-9.35,7.69-15v-.1c1.84-9,2.06-19.16,2-28.34V1647c.1-9.1-.14-19.09-2-28v-.09c-1.06-5.69-3.39-10.93-7.72-14.87-5.08-4.62-13.11-7-19.68-8.43-12.53-2.58-26.42-3.41-39.19-4l-5.42-.24v-19.65h199.83v19.65l-5.43.24c-12.75.54-26.4,1.4-38.93,4-6.5,1.41-14.65,3.86-19.67,8.42C3852.29,1608,3849.91,1613.31,3848.65,1619Zm360.23,323c6.6-1.32,14.84-3.66,20-8.22,4.34-4,6.65-9.35,7.7-15.06,1.7-9.12,1.95-19.16,1.85-28.43V1647.11a198.48,198.48,0,0,0-2.25-28.3c-1-5.49-3.05-11-7.09-15-4.52-4.37-11.94-6.73-17.95-8h-.05c-11.83-2.58-25.19-3.26-37.27-3.64l-5.49-.17v-20.33H4362.5a445.41,445.41,0,0,1,49.4,2.59,222.65,222.65,0,0,1,39.33,7.73c19,5.69,38.38,14.88,51.07,30.58,11.48,14.2,16.32,31,16.19,49.15a65.63,65.63,0,0,1-7.83,31.27,83.1,83.1,0,0,1-19.48,23.9,132.68,132.68,0,0,1-25.76,17.23,184.54,184.54,0,0,1-27.45,11.55l-.91.29a272.36,272.36,0,0,1,26.95,6.93,183.94,183.94,0,0,1,44.47,20.29c12.64,8.1,23.68,18.29,31.93,30.9a76.67,76.67,0,0,1,12.35,42.06v.08c-.13,21.76-6.78,41.44-20.95,58-15.11,18-35.86,30.49-57.31,39.45l-.05,0-.05,0c-21.8,8.61-44.86,13.88-68.06,17a609.53,609.53,0,0,1-82,4.84H4162.88v-19.73l5.5-.17C4181.68,1945.28,4195.78,1944.47,4208.88,1942Zm84.31-345a1.8,1.8,0,0,0-.62.84,20.6,20.6,0,0,0-.74,6.39v134.26h50.39c22.28-.08,47.33-1.83,68.57-9,14-4.71,28.26-12.13,37.24-24.28,8.33-11.18,11.72-24.16,11.61-38v-.18a70.79,70.79,0,0,0-2.06-17,56.05,56.05,0,0,0-8.63-18.53c-5-7.19-12.09-13-19.48-17.54l0,0c-10.38-6.54-23.37-10.59-35.25-13.33-17.95-4.18-37.49-5.27-55.85-5.35-9.44,0-19,0-28.43.4h-.09c-4.46.13-9.21.26-13.65.78l-.17,0h-.18A8.24,8.24,0,0,0,4293.19,1597Zm-1.36,165.66v130.66c-.1,7.81.38,16.14,2.4,23.72v.08a24.45,24.45,0,0,0,8.19,13.16c5.26,4.1,12.82,6.21,19.27,7.39,11.6,2.12,24.34,2.45,36.11,2.45h0a270.74,270.74,0,0,0,52.39-4.58c14.5-2.78,28.71-7.36,41.61-14.63a73.87,73.87,0,0,0,26.9-26c7.1-11.87,9.6-25.88,9.71-39.55-.12-19.26-5.29-37-18.07-51.66-13.49-15.28-31.62-24.78-50.9-30.71-25-7.8-51.94-10.33-78-10.33ZM4959.17,1814H4785.9c-1.51,2.61-2.91,5.36-4.24,8l0,.07,0,.06c-3.32,6.17-6.35,12.54-9.34,18.88-3.64,7.72-7.22,15.46-10.55,23.32l0,.07q-5.23,11.88-10.05,23.94c-2.67,6.72-5.17,13.57-7.23,20.5v0l0,0c-1.09,3.48-2.72,8.8-2.72,12.46,0,4.54,1.22,8.46,4.91,11.28l.06,0c5,3.94,13,6.16,19.1,7.47,11.66,2.5,23.75,4.1,35.58,5.51l5,.6v19.26H4618.14v-19.11l4.82-.72a292.16,292.16,0,0,0,33-6.48,66.25,66.25,0,0,0,20.92-9.63l0,0c6.59-4.64,12.09-11.16,16.65-17.74a288.46,288.46,0,0,0,18.7-32.15l0-.06,170.13-313.05,16.29-5.32,54.29,117.6q17.7,37.89,35.44,75.76,16.69,35.91,33.72,71.64c10.25,21.37,20.61,42.67,31.24,63.84a300,300,0,0,0,15,26.78,56,56,0,0,0,13.63,15c5.54,4,12.41,6.61,19,8.36a243,243,0,0,0,32.05,5.46l5,.57v19.29H4948.39v-19.34l5.09-.53c11.6-1.19,23.49-2.57,34.94-4.81,5.26-1,12.83-2.84,17.27-6l0,0,0,0a7.1,7.1,0,0,0,3.38-6.59c-.17-6.8-4.24-17.42-6.74-23.69-5.61-13.94-12-27.67-18.54-41.2C4975.9,1846.79,4967.6,1830.37,4959.17,1814Zm-80.33-178.09q-13.24,23.4-26.11,47c-9.84,18.33-19.57,36.74-29,55.29-7.65,14.9-15.23,29.85-22.6,44.9h145.65Zm487.6,158.94q-18.18-.46-36.35-.42v95.84c-.1,9.18.12,19.32,2,28.34v.1c1.05,5.66,3.25,11.1,7.57,15,5.11,4.52,12.84,6.87,19.39,8.23,12.52,2.45,26.05,3.27,38.78,3.65l5.5.17v19.73H5201.14v-19.73l5.5-.17c13.15-.39,27.16-1.19,40.1-3.66,6.62-1.32,14.88-3.67,20-8.25l.06,0c4.49-3.88,6.81-9.21,7.87-15v-.1c1.84-9,2.06-19.16,2-28.34V1645.15c.1-9-.11-19-1.83-27.83-1.12-5.23-3.2-10.29-7.41-13.77l-.05,0-.06,0c-4.78-4.16-12.77-6.29-18.86-7.45-12.38-2.23-25.51-3.16-38.06-3.79l-5.39-.27v-20.22H5394.5a396.85,396.85,0,0,1,47,2.58,250,250,0,0,1,44.76,9.07h0a140.35,140.35,0,0,1,38.14,18.06,86,86,0,0,1,26.94,29.65c7.17,13.16,9.92,27.92,10,42.79v0c0,16.93-3.49,33.34-12.06,48.07-8.46,14.53-20.31,26.27-34.2,35.66a223.93,223.93,0,0,1-45.56,22.95q4,5.66,8.32,11.12,8.57,11,17.42,21.76,9.73,11.61,19.74,23l0,0q9.31,10.68,19,21,15.14,14.64,30.59,29c10.92,10.18,22.23,20,33.82,29.36a287,287,0,0,0,34,23.65l0,0c9.36,5.51,19.64,10.19,30.33,12.37l6.05,1.23-5.27,17.9-4.2,0c-11.23.1-22.47-.17-33.67-.93a148.07,148.07,0,0,1-31.82-5.7,140.75,140.75,0,0,1-32.85-14.52c-13-7.62-25.11-17.25-36.33-27.22l0,0c-15.08-13.55-29.25-28.52-42.76-43.63-18.37-20.66-35.88-42.19-52.85-64a49.59,49.59,0,0,0-14.22-11.42,66.84,66.84,0,0,0-19.38-6.16A215.62,215.62,0,0,0,5366.44,1794.87Zm-35.35-198.38,0,0c-.83,1.41-1,6.17-1,7.73v166.64H5372c18.36.08,37.47-.73,55.56-4,12.74-2.37,25.42-6.46,36.4-13.46l.05,0,0,0c11.65-7.12,21.22-16.38,27.86-28.36l0,0c7.23-12.81,9.91-27.31,9.91-41.9-.11-18-4.19-35.49-15.62-49.72s-27-23.15-44.19-28.71c-22.15-7.13-46.07-9.49-69.26-9.4-8.56,0-17.17,0-25.72.4h-.08c-5,.15-10,.36-15,.8l-.54,0Z"/></g></g></svg>