<?xml version="1.0" encoding="iso-8859-1"?>
<!-- Generator: Adobe Illustrator 16.0.0, SVG Export Plug-In . SVG Version: 6.00 Build 0)  -->
<!DOCTYPE svg PUBLIC "-//W3C//DTD SVG 1.1//EN" "http://www.w3.org/Graphics/SVG/1.1/DTD/svg11.dtd">
<svg version="1.1" id="Capa_1" xmlns="http://www.w3.org/2000/svg" xmlns:xlink="http://www.w3.org/1999/xlink" x="0px" y="0px"
	 width="46.821px" height="46.82px" viewBox="0 0 46.821 46.82" style="enable-background:new 0 0 46.821 46.82;"
	 xml:space="preserve">
<g>
	<path fill="#ffffff" d="M23.412,27.156c-1.467,0-2.656-0.475-2.656-1.062c0-0.589,1.189-1.063,2.656-1.063c1.467,0,2.657,0.476,2.657,1.063
		C26.069,26.68,24.879,27.156,23.412,27.156z M43.459,18.377c-0.232-2.266-0.736-5-1.617-6.936C41.624,10.967,36.456,0,23.411,0
		C10.24,0,5.235,11.015,5.028,11.486c-0.858,1.887-1.357,4.582-1.593,6.832c-1.587,1.225-2.62,3.201-2.62,5.428
		c0,3.08,1.978,5.684,4.665,6.475c2.082,4.037,5.473,7.195,9.54,9.045v4.166c0,0.828,0.671,1.5,1.5,1.5
		c0.032,0,0.062-0.008,0.093-0.01c0.784-0.047,1.407-0.693,1.407-1.49v-3.072v-4.193v-0.08c0-0.312,0.039-0.615,0.097-0.918
		c0.318-1.68,1.487-3.121,3.172-3.809c0.767-0.314,1.135-1.189,0.82-1.957c-0.313-0.768-1.19-1.139-1.955-0.82
		c-2.71,1.105-4.583,3.479-5.028,6.236c-3.253-1.934-5.764-4.955-7-8.562c-0.285,0.137-0.599,0.213-0.929,0.213
		c-1.322,0-2.383-1.219-2.383-2.723c0-1.43,0.965-2.59,2.195-2.701c0.404,0.744,0.879,1.457,1.438,2.127
		c-0.442-1.516-0.685-3.074-0.685-4.625C7.763,10.14,14.769,5.273,23.41,5.273c8.64,0,15.646,4.867,15.646,13.273
		c0,1.551-0.242,3.109-0.685,4.625c0.558-0.67,1.033-1.383,1.438-2.127c1.232,0.111,2.195,1.271,2.195,2.701
		c0,1.504-1.061,2.724-2.383,2.724c-0.31,0-0.602-0.07-0.869-0.19c-1.247,3.616-3.775,6.646-7.049,8.571
		c-0.439-2.819-2.365-5.226-5.155-6.315c-0.771-0.304-1.642,0.076-1.943,0.851c-0.302,0.771,0.078,1.642,0.851,1.942
		c1.729,0.676,2.928,2.131,3.25,3.84c0.057,0.302,0.095,0.604,0.095,0.918v0.104v4.185v3.06c0,0.733,0.528,1.345,1.226,1.474
		c0.09,0.019,0.182,0.026,0.274,0.026c0.829,0,1.5-0.672,1.5-1.5v-4.135c4.104-1.851,7.524-5.031,9.618-9.101
		c2.646-0.817,4.587-3.399,4.587-6.451C46.007,21.555,45.006,19.603,43.459,18.377z M17.865,18.764
		c-1.021-0.336-3.641-0.557-3.751-0.565c-0.229-0.017-0.426,0.108-0.508,0.313c-0.081,0.205-0.018,0.439,0.156,0.576
		c0.229,0.182,2.271,1.779,3.303,2.119c0.444,0.145,0.889,0.221,1.285,0.221c1.017,0,1.287-0.5,1.356-0.711
		c0.052-0.16,0.082-0.414-0.073-0.719C19.382,19.504,18.72,19.041,17.865,18.764z M28.473,21.428c0.396,0,0.841-0.076,1.286-0.223
		c1.03-0.338,3.073-1.936,3.302-2.117c0.174-0.137,0.236-0.371,0.156-0.576c-0.082-0.205-0.278-0.332-0.508-0.313
		c-0.11,0.01-2.73,0.229-3.75,0.563c-0.856,0.279-1.52,0.742-1.771,1.236c-0.153,0.305-0.125,0.559-0.071,0.717
		C27.186,20.928,27.458,21.428,28.473,21.428z M24.786,37.039c-0.289-0.191-0.662-0.305-1.149-0.305l-0.224,0.002l-0.225-0.002
		c-0.481,0-0.854,0.109-1.141,0.299c-0.864,0.568-0.956,1.861-0.956,3.092c0,0.271,0.017,0.549,0.041,0.826
		c0.218,2.498,1.306,5.131,1.357,5.254c0.154,0.373,0.519,0.615,0.922,0.615c0.402,0,0.767-0.242,0.922-0.615
		c0.051-0.123,1.137-2.75,1.355-5.246c0.025-0.281,0.042-0.561,0.042-0.834C25.732,38.898,25.64,37.611,24.786,37.039z"/>
</g>
<g>
</g>
<g>
</g>
<g>
</g>
<g>
</g>
<g>
</g>
<g>
</g>
<g>
</g>
<g>
</g>
<g>
</g>
<g>
</g>
<g>
</g>
<g>
</g>
<g>
</g>
<g>
</g>
<g>
</g>
</svg>
