<?xml version="1.0" encoding="UTF-8"?> <svg xmlns="http://www.w3.org/2000/svg" width="16" height="16" viewBox="0 0 16 16" fill="none"><path d="M14.0819 2.18214C14.1534 2.25368 14.2015 2.34521 14.2199 2.44465C14.2383 2.5441 14.2261 2.64678 14.1849 2.73914L8.52793 15.4671C8.4884 15.5562 8.42374 15.6317 8.34188 15.6845C8.26002 15.7372 8.16453 15.765 8.06713 15.7642C7.96974 15.7635 7.87468 15.7343 7.79364 15.6803C7.71259 15.6263 7.64909 15.5498 7.61093 15.4601L5.56993 10.6941L0.802926 8.65214C0.713651 8.61375 0.637501 8.55016 0.58379 8.46917C0.530079 8.38818 0.501136 8.29329 0.500499 8.19611C0.499862 8.09892 0.527561 8.00366 0.580206 7.92198C0.632851 7.84029 0.708161 7.77571 0.796926 7.73614L13.5249 2.07914C13.6172 2.03819 13.7196 2.02611 13.8189 2.0445C13.9181 2.06288 14.0095 2.11087 14.0809 2.18214H14.0819Z" fill="#FFA900"></path></svg> 