<?xml version="1.0" encoding="UTF-8"?> <svg xmlns="http://www.w3.org/2000/svg" width="25" height="24" viewBox="0 0 25 24" fill="none"><path d="M12 13C13.4587 13 14.8576 12.4205 15.8891 11.3891C16.9205 10.3576 17.5 8.95869 17.5 7.5C17.5 6.04131 16.9205 4.64236 15.8891 3.61091C14.8576 2.57946 13.4587 2 12 2C10.5413 2 9.14236 2.57946 8.11091 3.61091C7.07946 4.64236 6.5 6.04131 6.5 7.5C6.5 8.95869 7.07946 10.3576 8.11091 11.3891C9.14236 12.4205 10.5413 13 12 13ZM15.6667 7.5C15.6667 8.47246 15.2804 9.40509 14.5927 10.0927C13.9051 10.7804 12.9725 11.1667 12 11.1667C11.0275 11.1667 10.0949 10.7804 9.40728 10.0927C8.71964 9.40509 8.33333 8.47246 8.33333 7.5C8.33333 6.52754 8.71964 5.59491 9.40728 4.90727C10.0949 4.21964 11.0275 3.83333 12 3.83333C12.9725 3.83333 13.9051 4.21964 14.5927 4.90727C15.2804 5.59491 15.6667 6.52754 15.6667 7.5ZM23 22.1667C23 24 21.1667 24 21.1667 24H2.83333C2.83333 24 1 24 1 22.1667C1 20.3333 2.83333 14.8333 12 14.8333C21.1667 14.8333 23 20.3333 23 22.1667ZM21.1667 22.1593C21.1648 21.7083 20.8843 20.3517 19.6413 19.1087C18.446 17.9133 16.1965 16.6667 12 16.6667C7.80167 16.6667 5.554 17.9133 4.35867 19.1087C3.11567 20.3517 2.837 21.7083 2.83333 22.1593H21.1667Z" fill="#333333"></path></svg> 