<?xml version="1.0" encoding="UTF-8"?> <svg xmlns="http://www.w3.org/2000/svg" width="33" height="32" viewBox="0 0 33 32" fill="none"><path fill-rule="evenodd" clip-rule="evenodd" d="M8.0293 16.0003C8.0293 15.7351 8.13458 15.4807 8.32198 15.2932C8.50938 15.1056 8.76355 15.0003 9.02857 15.0003H20.6062L16.3153 10.7083C16.1276 10.5205 16.0222 10.2658 16.0222 10.0003C16.0222 9.73474 16.1276 9.48006 16.3153 9.29229C16.5029 9.10451 16.7574 8.99902 17.0228 8.99902C17.2881 8.99902 17.5426 9.10451 17.7303 9.29229L23.7259 15.2923C23.819 15.3852 23.8928 15.4955 23.9432 15.617C23.9936 15.7385 24.0195 15.8688 24.0195 16.0003C24.0195 16.1318 23.9936 16.2621 23.9432 16.3836C23.8928 16.505 23.819 16.6154 23.7259 16.7083L17.7303 22.7083C17.5426 22.8961 17.2881 23.0015 17.0228 23.0015C16.7574 23.0015 16.5029 22.8961 16.3153 22.7083C16.1276 22.5205 16.0222 22.2658 16.0222 22.0003C16.0222 21.7347 16.1276 21.4801 16.3153 21.2923L20.6062 17.0003H9.02857C8.76355 17.0003 8.50938 16.8949 8.32198 16.7074C8.13458 16.5199 8.0293 16.2655 8.0293 16.0003Z" fill="#333333"></path></svg> 